Simulation
nRows=34
nColumns=15
endheader
time  TH_x TH_y TH_z SC_y  SC_z  SC_x  AC_y  AC_z  AC_x  GH_y  GH_z  GH_yy  EL_x  PS_y
0.0  0.000000  0.000000  0.000000  -26.385327572937907  -2.1320317430034685  -2.3934634418014755  57.260793026261226  8.899282941147336  -1.2957609926469043  -43.61264455802223  7.34568459969553  102.02145992723229  14.751552228544936  120.000000
0.04078947368421054  0.000000  0.000000  0.000000  -25.03606010729159  -1.179944723713894  -2.0262683962912424  56.48530126643309  8.690712469935967  -0.9088755204690423  -37.08917459645869  7.8218488006875635  94.54652487138596  14.637362210052569  120.000000
0.08157894736842108  0.000000  0.000000  0.000000  -23.90465154732145  -0.5552845595326695  -1.82527339325764  55.82419338728184  8.52377792236841  -0.7106188738790397  -31.032373670401295  8.479585661187507  87.56946193901634  14.414610655281864  120.000000
0.12236842105263163  0.000000  0.000000  0.000000  -22.936621430534068  -0.1473782794386572  -1.8063552210280371  55.23427761240709  8.468088602697097  -0.5980523905509254  -26.150587617428013  9.335006915044792  81.85835440622878  14.379172411403768  120.000000
0.16315789473684217  0.000000  0.000000  0.000000  -22.087183963293405  0.13319292245948508  -1.973237042129975  54.66451482370207  8.545595594780213  -0.4973213870960455  -22.72922130929714  10.342618905071252  77.64834660602025  14.704286692576726  120.000000
0.2039473684210527  0.000000  0.000000  0.000000  -21.31025567754975  0.3367162481679202  -2.322144535804834  54.08707203616859  8.771940653451992  -0.3717120428219765  -20.751394502332595  11.455693532731472  74.85072212381763  15.506883764063012  120.000000
0.24473684210526325  0.000000  0.000000  0.000000  -20.582989522044517  0.4893116569464522  -2.847533365442998  53.478367205774575  9.154603680428451  -0.19674035547061974  -20.030419233894712  12.640457069125828  73.21277937762672  16.8510814796861  120.000000
0.2855263157894738  0.000000  0.000000  0.000000  -19.928991605880768  0.6086863138760724  -3.5443732993781594  52.831978975687115  9.702178960725256  0.04683495075840617  -20.30711493138583  13.877488209564747  72.43658468567399  18.76963985160262  120.000000
0.32631578947368434  0.000000  0.000000  0.000000  -19.390012202802353  0.7249835549465251  -4.398995726600892  52.143409012738175  10.408147912238928  0.3846656036544805  -21.34690142427991  15.15861096430098  72.2819563477299  21.270987307224715  120.000000
0.3671052631578949  0.000000  0.000000  0.000000  -19.001547037841107  0.8789845495578141  -5.38529193225277  51.416939431077  11.242146984272695  0.8399438631615962  -22.93752376347203  16.480614566135433  72.56654943296584  24.315621294037197  120.000000
0.4078947368421054  0.000000  0.000000  0.000000  -18.764700231251275  1.094302449762701  -6.462896615084715  50.66697511515333  12.16322650978338  1.4166046178458034  -24.92245553241124  17.84510065847755  73.19146371883274  27.807636234451046  120.000000
0.44868421052631596  0.000000  0.000000  0.000000  -18.6476560972278  1.366826032299207  -7.584088163167057  49.91480052402582  13.124292192108937  2.0950964306563153  -27.15704079930135  19.263026900685496  74.08572557185205  31.60062352415811  120.000000
0.4894736842105265  0.000000  0.000000  0.000000  -18.612491135203967  1.6847583570635645  -8.699685614108294  49.179989618269545  14.079838922658567  2.847361335236784  -29.48671338966622  20.742223487592486  75.16564238164716  35.537958705185176  120.000000
0.530263157894737  0.000000  0.000000  0.000000  -18.632844234791655  2.0430605339020587  -9.760776379079946  48.47866866754814  14.98941732406783  3.641738301672406  -31.768027266482868  22.286478912042757  76.33396654122078  39.506994536321294  120.000000
0.5710526315789476  0.000000  0.000000  0.000000  -18.702343026220472  2.444439263970638  -10.72111687405285  47.818371268342936  15.81852273559931  4.448135246589138  -33.888328544421746  23.89428343475647  77.49421282737478  43.45148756886472  120.000000
0.6118421052631582  0.000000  0.000000  0.000000  -18.829293126620907  2.893212545249826  -11.541901012350003  47.202785184208786  16.541711466649893  5.234046484674006  -35.7776788732952  25.557594067986315  78.5600726302776  47.361365684179646  120.000000
0.6526315789473687  0.000000  0.000000  0.000000  -19.02472140203509  3.3901665433438564  -12.192332457446968  46.6342112747029  17.13972931591949  5.968604613987335  -37.41230394547827  27.269685169391337  79.47418532315925  51.251981139289434  120.000000
0.6934210526315792  0.000000  0.000000  0.000000  -19.293914229368514  3.9306497298470813  -12.652913673033888  46.11882679036816  17.59965225674759  6.625137803902804  -38.80263350809354  29.025632330180258  80.20710333329198  55.14001722698026  120.000000
0.7342105263157898  0.000000  0.000000  0.000000  -19.632460932616954  4.503301716494523  -12.915483778579816  45.667416757058085  17.91514579476771  7.184210321028777  -39.97847342456598  30.824649573390328  80.75333566682731  59.03005938577048  120.000000
0.7750000000000004  0.000000  0.000000  0.000000  -20.027387445697833  5.093554261718291  -12.983244696237323  45.292524487562986  18.086743996395345  7.634656251937293  -40.97724977781273  32.66568450085456  81.1237801165891  62.91117856617155  120.000000
0.8157894736842108  0.000000  0.000000  0.000000  -20.4632999887359  5.688387814681541  -12.867423467463754  45.00241089313696  18.121033983934772  7.973852024736665  -41.831973509388924  34.54083435206279  81.33783483698939  66.7582359402255  120.000000
0.8565789473684213  0.000000  0.000000  0.000000  -20.924872931521705  6.279648945982284  -12.584717744464172  44.7957418584157  18.028859102183116  8.205497350931484  -42.56590451942512  36.42900861613735  81.41957019769204  70.53215686037682  120.000000
0.8973684210526319  0.000000  0.000000  0.000000  -21.39941061828624  6.8642924838895185  -12.153416351047373  44.66267379531498  17.824668471133467  8.337598765166737  -43.192649889062665  38.29567733822515  81.39718995584798  74.18130916691715  120.000000
0.9381578947368425  0.000000  0.000000  0.000000  -21.8773320584432  7.443019250004189  -11.592429029377962  44.58620758731007  17.524911995574993  8.381141473917488  -43.71953660297117  40.098451239500044  81.30243207603655  77.64859621899517  120.000000
0.978947368421053  0.000000  0.000000  0.000000  -22.350847215512136  8.018039246264854  -10.920492251433537  44.54588402864332  17.146594841561274  8.347175311488478  -44.151603029675954  41.7952181879516  81.16699149209138  80.88198201291804  120.000000
1.0197368421052635  0.000000  0.000000  0.000000  -22.812308745444028  8.590535955823594  -10.155996133460906  44.52092176325904  16.70456883416672  8.24516227111429  -44.496298202903375  43.353841452538575  81.02123326503317  83.844385786751  120.000000
1.060526315789474  0.000000  0.000000  0.000000  -23.253477541919967  9.158813709359842  -9.317371369549411  44.49403009872615  16.212269725453883  8.081357160448755  -44.766157779549296  44.75576608707835  80.89150307533761  86.5183233416205  120.000000
1.1013157894736847  0.000000  0.000000  0.000000  -23.666025838651933  9.717388156008397  -8.423239378466228  44.453389191318756  15.681073451200692  7.860448501683841  -44.97873268456852  45.99735658875431  80.79926090142344  88.90365587424273  120.000000
1.1421052631578952  0.000000  0.000000  0.000000  -24.042381914679297  10.258033021657473  -7.492223942486589  44.394456837090004  15.121622237649646  7.5861098250948835  -45.15425082276494  47.08395582913438  80.7586277313115  91.0102540572671  120.000000
1.1828947368421057  0.000000  0.000000  0.000000  -24.376516024992878  10.770716290143447  -6.542515451619212  44.31928872817997  14.543040406236045  7.263570208061182  -45.3121064013471  48.02690141816385  80.77588979787912  92.8510864584603  120.000000
1.2236842105263164  0.000000  0.000000  0.000000  -24.66465687368229  11.244980815490973  -5.591445853409092  44.23616475018909  13.954599144913402  6.899294493879767  -45.46854825877402  48.837895700938205  80.84890789371215  94.43779297341436  120.000000
1.2644736842105269  0.000000  0.000000  0.000000  -24.90554818448618  11.670811274265452  -4.655061005893394  44.156382283300665  13.36505718224512  6.502475729487708  -45.634746100653906  49.52858769137108  80.9689240743898  95.77996447493403  120.000000
1.3052631578947373  0.000000  0.000000  0.000000  -25.10062330445257  12.039919499716861  -3.7479104674366317  44.09253647488991  12.784004123656176  6.083458073876199  -45.81727652296808  50.10781425524826  81.12228339124681  96.88644918587198  120.000000
1.3460526315789478  0.000000  0.000000  0.000000  -25.25389986700174  12.346435525329476  -2.8826715019682077  44.05480746965972  12.220729791489719  5.654175150756621  -46.017818061532175  50.583166465357856  81.29358276263464  97.76772980007152  120.000000
